<mxfile host="app.diagrams.net" modified="2024-03-27T23:08:35.306Z" agent="Mozilla/5.0 (Macintosh; Intel Mac OS X 10.15; rv:123.0) Gecko/20100101 Firefox/123.0" etag="h5bDRbwvKcSVvenGdjmE" version="24.2.0" type="google">
  <diagram name="Page-1" id="lGoqmE_O7JG7zGaFfMOT">
    <mxGraphModel grid="1" page="1" gridSize="10" guides="1" tooltips="1" connect="1" arrows="1" fold="1" pageScale="1" pageWidth="850" pageHeight="1100" math="0" shadow="0">
      <root>
        <mxCell id="0" />
        <mxCell id="1" parent="0" />
        <mxCell id="CsPIObY8kWV4lpGig5qm-3" value="CSV File" style="shape=datastore;whiteSpace=wrap;html=1;" vertex="1" parent="1">
          <mxGeometry x="-90" y="190" width="160" height="150" as="geometry" />
        </mxCell>
        <mxCell id="CsPIObY8kWV4lpGig5qm-4" value="&lt;div&gt;EDA&lt;/div&gt;&lt;div&gt;&lt;br&gt;&lt;/div&gt;&lt;div&gt;&lt;br&gt;&lt;/div&gt;&lt;div&gt;&lt;br&gt;&lt;/div&gt;&lt;div&gt;&lt;br&gt;&lt;/div&gt;&lt;div&gt;&lt;br&gt;&lt;/div&gt;&lt;div&gt;&lt;br&gt;&lt;/div&gt;&lt;div&gt;&lt;br&gt;&lt;/div&gt;&lt;div&gt;&lt;br&gt;&lt;/div&gt;&lt;div&gt;&lt;br&gt;&lt;/div&gt;&lt;div&gt;&lt;br&gt;&lt;/div&gt;" style="html=1;dashed=0;whiteSpace=wrap;" vertex="1" parent="1">
          <mxGeometry x="130" width="440" height="220" as="geometry" />
        </mxCell>
        <mxCell id="CsPIObY8kWV4lpGig5qm-18" style="edgeStyle=orthogonalEdgeStyle;rounded=0;orthogonalLoop=1;jettySize=auto;html=1;exitX=1;exitY=0.5;exitDx=0;exitDy=0;entryX=0;entryY=0.5;entryDx=0;entryDy=0;" edge="1" parent="1" source="CsPIObY8kWV4lpGig5qm-7" target="CsPIObY8kWV4lpGig5qm-8">
          <mxGeometry relative="1" as="geometry" />
        </mxCell>
        <mxCell id="CsPIObY8kWV4lpGig5qm-7" value="Data Analysis" style="whiteSpace=wrap;html=1;aspect=fixed;" vertex="1" parent="1">
          <mxGeometry x="150" y="70" width="80" height="80" as="geometry" />
        </mxCell>
        <mxCell id="CsPIObY8kWV4lpGig5qm-19" style="edgeStyle=orthogonalEdgeStyle;rounded=0;orthogonalLoop=1;jettySize=auto;html=1;exitX=1;exitY=0.5;exitDx=0;exitDy=0;entryX=0;entryY=0.5;entryDx=0;entryDy=0;" edge="1" parent="1" source="CsPIObY8kWV4lpGig5qm-8" target="CsPIObY8kWV4lpGig5qm-9">
          <mxGeometry relative="1" as="geometry" />
        </mxCell>
        <mxCell id="CsPIObY8kWV4lpGig5qm-8" value="Data Transformation" style="whiteSpace=wrap;html=1;aspect=fixed;" vertex="1" parent="1">
          <mxGeometry x="260" y="70" width="80" height="80" as="geometry" />
        </mxCell>
        <mxCell id="CsPIObY8kWV4lpGig5qm-20" style="edgeStyle=orthogonalEdgeStyle;rounded=0;orthogonalLoop=1;jettySize=auto;html=1;exitX=1;exitY=0.5;exitDx=0;exitDy=0;entryX=0;entryY=0.5;entryDx=0;entryDy=0;" edge="1" parent="1" source="CsPIObY8kWV4lpGig5qm-9" target="CsPIObY8kWV4lpGig5qm-10">
          <mxGeometry relative="1" as="geometry" />
        </mxCell>
        <mxCell id="CsPIObY8kWV4lpGig5qm-9" value="Storage" style="whiteSpace=wrap;html=1;aspect=fixed;" vertex="1" parent="1">
          <mxGeometry x="370" y="70" width="80" height="80" as="geometry" />
        </mxCell>
        <mxCell id="CsPIObY8kWV4lpGig5qm-21" style="edgeStyle=orthogonalEdgeStyle;rounded=0;orthogonalLoop=1;jettySize=auto;html=1;" edge="1" parent="1" target="CsPIObY8kWV4lpGig5qm-12">
          <mxGeometry relative="1" as="geometry">
            <mxPoint x="570" y="110" as="sourcePoint" />
          </mxGeometry>
        </mxCell>
        <mxCell id="CsPIObY8kWV4lpGig5qm-10" value="Serving" style="whiteSpace=wrap;html=1;aspect=fixed;" vertex="1" parent="1">
          <mxGeometry x="480" y="70" width="80" height="80" as="geometry" />
        </mxCell>
        <mxCell id="CsPIObY8kWV4lpGig5qm-11" style="edgeStyle=orthogonalEdgeStyle;rounded=0;orthogonalLoop=1;jettySize=auto;html=1;entryX=0;entryY=0.5;entryDx=0;entryDy=0;exitX=0.5;exitY=0;exitDx=0;exitDy=0;" edge="1" parent="1" source="CsPIObY8kWV4lpGig5qm-3" target="CsPIObY8kWV4lpGig5qm-4">
          <mxGeometry relative="1" as="geometry">
            <mxPoint y="285" as="sourcePoint" />
          </mxGeometry>
        </mxCell>
        <mxCell id="CsPIObY8kWV4lpGig5qm-22" style="edgeStyle=orthogonalEdgeStyle;rounded=0;orthogonalLoop=1;jettySize=auto;html=1;exitX=1;exitY=0.5;exitDx=0;exitDy=0;" edge="1" parent="1" source="CsPIObY8kWV4lpGig5qm-12" target="CsPIObY8kWV4lpGig5qm-13">
          <mxGeometry relative="1" as="geometry" />
        </mxCell>
        <mxCell id="CsPIObY8kWV4lpGig5qm-12" value="ML Model Serving" style="rounded=0;whiteSpace=wrap;html=1;" vertex="1" parent="1">
          <mxGeometry x="630" y="62.5" width="70" height="95" as="geometry" />
        </mxCell>
        <mxCell id="CsPIObY8kWV4lpGig5qm-13" value="CI/CD: Build, Deploy, Pipelines, Tests" style="html=1;dashed=0;whiteSpace=wrap;" vertex="1" parent="1">
          <mxGeometry x="770" y="15" width="260" height="190" as="geometry" />
        </mxCell>
        <mxCell id="CsPIObY8kWV4lpGig5qm-25" style="edgeStyle=orthogonalEdgeStyle;rounded=0;orthogonalLoop=1;jettySize=auto;html=1;exitX=0;exitY=0.5;exitDx=0;exitDy=0;" edge="1" parent="1" source="CsPIObY8kWV4lpGig5qm-14">
          <mxGeometry relative="1" as="geometry">
            <mxPoint x="660" y="160" as="targetPoint" />
          </mxGeometry>
        </mxCell>
        <mxCell id="CsPIObY8kWV4lpGig5qm-28" style="edgeStyle=orthogonalEdgeStyle;rounded=0;orthogonalLoop=1;jettySize=auto;html=1;exitX=0.5;exitY=1;exitDx=0;exitDy=0;entryX=0.5;entryY=0;entryDx=0;entryDy=0;" edge="1" parent="1" source="CsPIObY8kWV4lpGig5qm-14" target="CsPIObY8kWV4lpGig5qm-15">
          <mxGeometry relative="1" as="geometry" />
        </mxCell>
        <mxCell id="CsPIObY8kWV4lpGig5qm-14" value="ML Model Training" style="rounded=0;whiteSpace=wrap;html=1;" vertex="1" parent="1">
          <mxGeometry x="830" y="340" width="120" height="60" as="geometry" />
        </mxCell>
        <mxCell id="CsPIObY8kWV4lpGig5qm-15" value="ML Prediction" style="html=1;dashed=0;whiteSpace=wrap;" vertex="1" parent="1">
          <mxGeometry x="820" y="470" width="140" height="70" as="geometry" />
        </mxCell>
        <mxCell id="CsPIObY8kWV4lpGig5qm-23" value="" style="endArrow=classic;html=1;rounded=0;exitX=0.467;exitY=1.009;exitDx=0;exitDy=0;exitPerimeter=0;entryX=0.5;entryY=0;entryDx=0;entryDy=0;" edge="1" parent="1" source="CsPIObY8kWV4lpGig5qm-13" target="CsPIObY8kWV4lpGig5qm-14">
          <mxGeometry width="50" height="50" relative="1" as="geometry">
            <mxPoint x="470" y="410" as="sourcePoint" />
            <mxPoint x="520" y="360" as="targetPoint" />
          </mxGeometry>
        </mxCell>
        <mxCell id="CsPIObY8kWV4lpGig5qm-29" value="Monitoring" style="html=1;dashed=0;whiteSpace=wrap;shape=mxgraph.dfd.start" vertex="1" parent="1">
          <mxGeometry x="400" y="485" width="160" height="40" as="geometry" />
        </mxCell>
        <mxCell id="CsPIObY8kWV4lpGig5qm-31" value="" style="endArrow=classic;html=1;rounded=0;entryX=1;entryY=0.5;entryDx=0;entryDy=0;entryPerimeter=0;exitX=0;exitY=0.5;exitDx=0;exitDy=0;" edge="1" parent="1" source="CsPIObY8kWV4lpGig5qm-15" target="CsPIObY8kWV4lpGig5qm-29">
          <mxGeometry width="50" height="50" relative="1" as="geometry">
            <mxPoint x="770" y="580" as="sourcePoint" />
            <mxPoint x="820" y="530" as="targetPoint" />
          </mxGeometry>
        </mxCell>
        <mxCell id="CsPIObY8kWV4lpGig5qm-32" value="" style="endArrow=classic;html=1;rounded=0;exitX=0;exitY=0.5;exitDx=0;exitDy=0;exitPerimeter=0;entryX=0.55;entryY=1.02;entryDx=0;entryDy=0;entryPerimeter=0;" edge="1" parent="1" source="CsPIObY8kWV4lpGig5qm-29" target="CsPIObY8kWV4lpGig5qm-3">
          <mxGeometry width="50" height="50" relative="1" as="geometry">
            <mxPoint x="770" y="300" as="sourcePoint" />
            <mxPoint x="820" y="250" as="targetPoint" />
            <Array as="points">
              <mxPoint y="510" />
            </Array>
          </mxGeometry>
        </mxCell>
      </root>
    </mxGraphModel>
  </diagram>
</mxfile>
